<svg width="314" height="188" viewBox="0 0 314 188" fill="none" xmlns="http://www.w3.org/2000/svg">
<circle opacity="0.1" cx="94" cy="94" r="88" fill="#1F1D2B" stroke="white" stroke-width="11.4783"/>
<circle opacity="0.05" cx="94.0003" cy="94.0003" r="76.5217" fill="#1F1D2B" stroke="white" stroke-width="11.4783"/>
<circle opacity="0.1" cx="93.9995" cy="93.9998" r="65.0435" fill="#1F1D2B" stroke="white" stroke-width="11.4783"/>
<circle opacity="0.05" cx="93.9998" cy="94" r="53.5652" fill="#1F1D2B" stroke="white" stroke-width="11.4783"/>
<path d="M6 94C6 142.601 45.3989 182 94 182C142.601 182 182 142.601 182 94C182 45.3989 142.601 6 94 6" stroke="#65B0F6" stroke-width="11.4783" stroke-linecap="round"/>
<path d="M94 170.522C136.262 170.522 170.522 136.262 170.522 94.0003C170.522 51.7385 136.262 17.4785 94 17.4785" stroke="#FFB572" stroke-width="11.4783" stroke-linecap="round"/>
<path d="M94.439 28.4045C105.781 28.4045 116.927 31.3705 126.769 37.0082C136.611 42.6459 144.807 50.7593 150.545 60.5432C156.283 70.3271 159.363 81.4414 159.479 92.7832C159.595 104.125 156.743 115.3 151.206 125.199C145.669 135.098 137.64 143.377 127.916 149.215C118.191 155.053 107.109 158.246 95.7686 158.478C84.4286 158.71 73.2251 155.972 63.2698 150.537C53.3146 145.102 44.9538 137.157 39.017 127.493" stroke="#FF7CA3" stroke-width="11.4783" stroke-linecap="round"/>
<rect width="105" height="143" transform="translate(209 23)" fill="#1F1D2B"/>
<circle cx="218" cy="33" r="9" fill="#FF7CA3"/>
<path d="M237.288 38C237.195 38 237.148 37.9533 237.148 37.86V28.34C237.148 28.2467 237.195 28.2 237.288 28.2H240.676C241.647 28.2 242.421 28.4567 243 28.97C243.579 29.474 243.868 30.1507 243.868 31V35.2C243.868 36.0493 243.579 36.7307 243 37.244C242.421 37.748 241.647 38 240.676 38H237.288ZM238.492 36.782C238.492 36.8193 238.511 36.838 238.548 36.838H240.732C241.273 36.838 241.703 36.6747 242.02 36.348C242.347 36.012 242.515 35.564 242.524 35.004V31.196C242.524 30.636 242.361 30.1927 242.034 29.866C241.717 29.53 241.283 29.362 240.732 29.362H238.548C238.511 29.362 238.492 29.3807 238.492 29.418V36.782ZM246.446 29.754C246.185 29.754 245.97 29.67 245.802 29.502C245.634 29.334 245.55 29.1193 245.55 28.858C245.55 28.5967 245.634 28.382 245.802 28.214C245.97 28.046 246.185 27.962 246.446 27.962C246.708 27.962 246.922 28.046 247.09 28.214C247.258 28.382 247.342 28.5967 247.342 28.858C247.342 29.1193 247.258 29.334 247.09 29.502C246.922 29.67 246.708 29.754 246.446 29.754ZM245.886 37.986C245.793 37.986 245.746 37.9393 245.746 37.846V31.014C245.746 30.9207 245.793 30.874 245.886 30.874H246.95C247.044 30.874 247.09 30.9207 247.09 31.014V37.846C247.09 37.9393 247.044 37.986 246.95 37.986H245.886ZM252.381 30.776C253.146 30.776 253.753 31 254.201 31.448C254.649 31.8867 254.873 32.484 254.873 33.24V37.86C254.873 37.9533 254.826 38 254.733 38H253.669C253.575 38 253.529 37.9533 253.529 37.86V33.506C253.529 33.0393 253.393 32.6613 253.123 32.372C252.852 32.0827 252.493 31.938 252.045 31.938C251.606 31.938 251.247 32.0827 250.967 32.372C250.687 32.6613 250.547 33.0347 250.547 33.492V37.86C250.547 37.9533 250.5 38 250.407 38H249.343C249.249 38 249.203 37.9533 249.203 37.86V31.014C249.203 30.9207 249.249 30.874 249.343 30.874H250.407C250.5 30.874 250.547 30.9207 250.547 31.014V31.518C250.547 31.5367 250.551 31.5507 250.561 31.56C250.579 31.5693 250.593 31.5647 250.603 31.546C251.004 31.0327 251.597 30.776 252.381 30.776ZM262.477 33.548C262.514 33.9307 262.528 34.36 262.519 34.836C262.519 34.9293 262.472 34.976 262.379 34.976H257.913C257.875 34.976 257.857 34.9947 257.857 35.032C257.857 35.3493 257.885 35.592 257.941 35.76C258.043 36.1333 258.249 36.4273 258.557 36.642C258.874 36.8473 259.271 36.95 259.747 36.95C260.437 36.95 260.969 36.6653 261.343 36.096C261.389 36.0027 261.45 35.9887 261.525 36.054L262.323 36.586C262.388 36.642 262.402 36.7027 262.365 36.768C262.103 37.188 261.73 37.5193 261.245 37.762C260.769 38.0047 260.227 38.126 259.621 38.126C258.939 38.126 258.365 37.9767 257.899 37.678C257.432 37.3793 257.082 36.9547 256.849 36.404C256.625 35.8533 256.513 35.186 256.513 34.402C256.513 33.7207 256.564 33.2027 256.667 32.848C256.835 32.204 257.171 31.6953 257.675 31.322C258.179 30.9487 258.79 30.762 259.509 30.762C260.451 30.762 261.156 31 261.623 31.476C262.089 31.9427 262.374 32.6333 262.477 33.548ZM259.509 31.924C259.107 31.924 258.776 32.0267 258.515 32.232C258.253 32.428 258.076 32.694 257.983 33.03C257.917 33.2353 257.875 33.4967 257.857 33.814C257.857 33.8513 257.875 33.87 257.913 33.87H261.119C261.156 33.87 261.175 33.8513 261.175 33.814C261.156 33.506 261.128 33.2773 261.091 33.128C260.997 32.764 260.811 32.4747 260.531 32.26C260.26 32.036 259.919 31.924 259.509 31.924ZM267.325 38C267.232 38 267.185 37.9533 267.185 37.86V28.34C267.185 28.2467 267.232 28.2 267.325 28.2H268.389C268.482 28.2 268.529 28.2467 268.529 28.34V37.86C268.529 37.9533 268.482 38 268.389 38H267.325ZM273.832 30.776C274.597 30.776 275.204 31 275.652 31.448C276.1 31.8867 276.324 32.484 276.324 33.24V37.86C276.324 37.9533 276.277 38 276.184 38H275.12C275.026 38 274.98 37.9533 274.98 37.86V33.506C274.98 33.0393 274.844 32.6613 274.574 32.372C274.303 32.0827 273.944 31.938 273.496 31.938C273.057 31.938 272.698 32.0827 272.418 32.372C272.138 32.6613 271.998 33.0347 271.998 33.492V37.86C271.998 37.9533 271.951 38 271.858 38H270.794C270.7 38 270.654 37.9533 270.654 37.86V31.014C270.654 30.9207 270.7 30.874 270.794 30.874H271.858C271.951 30.874 271.998 30.9207 271.998 31.014V31.518C271.998 31.5367 272.002 31.5507 272.012 31.56C272.03 31.5693 272.044 31.5647 272.054 31.546C272.455 31.0327 273.048 30.776 273.832 30.776Z" fill="white"/>
<path d="M237.824 55.196C237.8 55.236 237.808 55.256 237.848 55.256H241.616C241.696 55.256 241.736 55.296 241.736 55.376V55.88C241.736 55.96 241.696 56 241.616 56H236.828C236.748 56 236.708 55.96 236.708 55.88V55.376C236.708 55.32 236.728 55.272 236.768 55.232C237.04 54.912 237.652 54.16 238.604 52.976L239.492 51.872C240.244 50.92 240.62 50.18 240.62 49.652C240.62 49.228 240.476 48.888 240.188 48.632C239.9 48.376 239.524 48.248 239.06 48.248C238.604 48.248 238.236 48.38 237.956 48.644C237.676 48.9 237.54 49.24 237.548 49.664V50.036C237.548 50.116 237.508 50.156 237.428 50.156H236.804C236.724 50.156 236.684 50.116 236.684 50.036V49.556C236.7 48.94 236.928 48.444 237.368 48.068C237.816 47.692 238.38 47.504 239.06 47.504C239.54 47.504 239.964 47.596 240.332 47.78C240.7 47.964 240.984 48.22 241.184 48.548C241.384 48.868 241.484 49.232 241.484 49.64C241.484 50.32 241.108 51.14 240.356 52.1C239.964 52.604 239.208 53.532 238.088 54.884L237.824 55.196ZM245.806 56.12C245.038 56.12 244.426 55.9 243.97 55.46C243.514 55.02 243.286 54.432 243.286 53.696V49.904C243.286 49.168 243.514 48.584 243.97 48.152C244.426 47.712 245.038 47.492 245.806 47.492C246.582 47.492 247.202 47.712 247.666 48.152C248.13 48.592 248.362 49.176 248.362 49.904V53.696C248.362 54.432 248.13 55.02 247.666 55.46C247.202 55.9 246.582 56.12 245.806 56.12ZM245.806 55.376C246.318 55.376 246.73 55.228 247.042 54.932C247.354 54.636 247.51 54.24 247.51 53.744V49.868C247.51 49.38 247.354 48.988 247.042 48.692C246.738 48.396 246.326 48.248 245.806 48.248C245.302 48.248 244.898 48.396 244.594 48.692C244.29 48.988 244.138 49.38 244.138 49.868V53.744C244.138 54.24 244.29 54.636 244.594 54.932C244.898 55.228 245.302 55.376 245.806 55.376ZM252.591 56.12C251.823 56.12 251.211 55.9 250.755 55.46C250.299 55.02 250.071 54.432 250.071 53.696V49.904C250.071 49.168 250.299 48.584 250.755 48.152C251.211 47.712 251.823 47.492 252.591 47.492C253.367 47.492 253.987 47.712 254.451 48.152C254.915 48.592 255.147 49.176 255.147 49.904V53.696C255.147 54.432 254.915 55.02 254.451 55.46C253.987 55.9 253.367 56.12 252.591 56.12ZM252.591 55.376C253.103 55.376 253.515 55.228 253.827 54.932C254.139 54.636 254.295 54.24 254.295 53.744V49.868C254.295 49.38 254.139 48.988 253.827 48.692C253.523 48.396 253.111 48.248 252.591 48.248C252.087 48.248 251.683 48.396 251.379 48.692C251.075 48.988 250.923 49.38 250.923 49.868V53.744C250.923 54.24 251.075 54.636 251.379 54.932C251.683 55.228 252.087 55.376 252.591 55.376ZM261.658 56.096C261.082 56.096 260.586 55.948 260.17 55.652C259.762 55.348 259.482 54.94 259.33 54.428C259.226 54.076 259.174 53.58 259.174 52.94C259.174 52.364 259.226 51.876 259.33 51.476C259.474 50.98 259.754 50.584 260.17 50.288C260.586 49.984 261.082 49.832 261.658 49.832C262.242 49.832 262.746 49.98 263.17 50.276C263.602 50.572 263.882 50.94 264.01 51.38C264.05 51.524 264.074 51.644 264.082 51.74V51.764C264.082 51.82 264.046 51.856 263.974 51.872L263.374 51.956H263.35C263.294 51.956 263.258 51.92 263.242 51.848L263.206 51.668C263.134 51.364 262.958 51.108 262.678 50.9C262.398 50.684 262.058 50.576 261.658 50.576C261.258 50.576 260.922 50.684 260.65 50.9C260.386 51.108 260.214 51.388 260.134 51.74C260.062 52.044 260.026 52.448 260.026 52.952C260.026 53.48 260.062 53.888 260.134 54.176C260.214 54.536 260.386 54.824 260.65 55.04C260.922 55.248 261.258 55.352 261.658 55.352C262.05 55.352 262.386 55.252 262.666 55.052C262.954 54.844 263.134 54.58 263.206 54.26V54.212L263.218 54.164C263.226 54.084 263.274 54.052 263.362 54.068L263.95 54.164C264.03 54.18 264.066 54.224 264.058 54.296L264.01 54.536C263.89 55 263.614 55.376 263.182 55.664C262.75 55.952 262.242 56.096 261.658 56.096ZM269.273 50.048C269.273 49.968 269.313 49.928 269.393 49.928H270.005C270.085 49.928 270.125 49.968 270.125 50.048V55.88C270.125 55.96 270.085 56 270.005 56H269.393C269.313 56 269.273 55.96 269.273 55.88V55.364C269.273 55.348 269.265 55.336 269.249 55.328C269.233 55.32 269.221 55.324 269.213 55.34C268.877 55.836 268.345 56.084 267.617 56.084C267.233 56.084 266.877 56.008 266.549 55.856C266.229 55.696 265.973 55.468 265.781 55.172C265.597 54.876 265.505 54.52 265.505 54.104V50.048C265.505 49.968 265.545 49.928 265.625 49.928H266.237C266.317 49.928 266.357 49.968 266.357 50.048V53.852C266.357 54.308 266.485 54.672 266.741 54.944C266.997 55.208 267.345 55.34 267.785 55.34C268.241 55.34 268.601 55.204 268.865 54.932C269.137 54.66 269.273 54.3 269.273 53.852V50.048ZM274.026 56.06C273.578 56.06 273.178 55.988 272.826 55.844C272.482 55.7 272.214 55.508 272.022 55.268C271.838 55.028 271.746 54.76 271.746 54.464V54.32C271.746 54.24 271.786 54.2 271.866 54.2H272.442C272.522 54.2 272.562 54.24 272.562 54.32V54.416C272.562 54.68 272.698 54.912 272.97 55.112C273.25 55.304 273.598 55.4 274.014 55.4C274.43 55.4 274.766 55.308 275.022 55.124C275.278 54.932 275.406 54.692 275.406 54.404C275.406 54.204 275.338 54.04 275.202 53.912C275.074 53.784 274.918 53.684 274.734 53.612C274.558 53.54 274.282 53.448 273.906 53.336C273.458 53.208 273.09 53.08 272.802 52.952C272.514 52.824 272.27 52.648 272.07 52.424C271.878 52.192 271.782 51.9 271.782 51.548C271.782 51.036 271.982 50.628 272.382 50.324C272.782 50.02 273.31 49.868 273.966 49.868C274.406 49.868 274.794 49.94 275.13 50.084C275.474 50.228 275.738 50.428 275.922 50.684C276.106 50.932 276.198 51.212 276.198 51.524V51.56C276.198 51.64 276.158 51.68 276.078 51.68H275.514C275.434 51.68 275.394 51.64 275.394 51.56V51.524C275.394 51.252 275.262 51.024 274.998 50.84C274.742 50.656 274.394 50.564 273.954 50.564C273.546 50.564 273.218 50.648 272.97 50.816C272.722 50.976 272.598 51.2 272.598 51.488C272.598 51.76 272.718 51.968 272.958 52.112C273.198 52.256 273.57 52.4 274.074 52.544C274.538 52.68 274.914 52.808 275.202 52.928C275.49 53.048 275.738 53.224 275.946 53.456C276.154 53.68 276.258 53.976 276.258 54.344C276.258 54.864 276.054 55.28 275.646 55.592C275.238 55.904 274.698 56.06 274.026 56.06ZM280.524 50.516C280.524 50.596 280.484 50.636 280.404 50.636H279.048C279.016 50.636 279 50.652 279 50.684V54.224C279 54.608 279.084 54.88 279.252 55.04C279.428 55.192 279.7 55.268 280.068 55.268H280.368C280.448 55.268 280.488 55.308 280.488 55.388V55.88C280.488 55.96 280.448 56 280.368 56C280.272 56.008 280.124 56.012 279.924 56.012C279.348 56.012 278.912 55.904 278.616 55.688C278.32 55.472 278.172 55.072 278.172 54.488V50.684C278.172 50.652 278.156 50.636 278.124 50.636H277.392C277.312 50.636 277.272 50.596 277.272 50.516V50.048C277.272 49.968 277.312 49.928 277.392 49.928H278.124C278.156 49.928 278.172 49.912 278.172 49.88V48.488C278.172 48.408 278.212 48.368 278.292 48.368H278.88C278.96 48.368 279 48.408 279 48.488V49.88C279 49.912 279.016 49.928 279.048 49.928H280.404C280.484 49.928 280.524 49.968 280.524 50.048V50.516ZM284.311 56.096C283.735 56.096 283.239 55.948 282.823 55.652C282.407 55.356 282.119 54.948 281.959 54.428C281.847 54.06 281.791 53.568 281.791 52.952C281.791 52.336 281.847 51.848 281.959 51.488C282.111 50.976 282.395 50.572 282.811 50.276C283.227 49.98 283.731 49.832 284.323 49.832C284.891 49.832 285.379 49.98 285.787 50.276C286.203 50.572 286.487 50.972 286.639 51.476C286.751 51.82 286.807 52.312 286.807 52.952C286.807 53.6 286.751 54.092 286.639 54.428C286.487 54.948 286.203 55.356 285.787 55.652C285.379 55.948 284.887 56.096 284.311 56.096ZM284.311 55.352C284.695 55.352 285.023 55.248 285.295 55.04C285.567 54.824 285.751 54.536 285.847 54.176C285.919 53.888 285.955 53.484 285.955 52.964C285.955 52.436 285.923 52.032 285.859 51.752C285.763 51.392 285.575 51.108 285.295 50.9C285.023 50.684 284.691 50.576 284.299 50.576C283.907 50.576 283.575 50.684 283.303 50.9C283.031 51.108 282.847 51.392 282.751 51.752C282.687 52.032 282.655 52.436 282.655 52.964C282.655 53.492 282.687 53.896 282.751 54.176C282.839 54.536 283.019 54.824 283.291 55.04C283.571 55.248 283.911 55.352 284.311 55.352ZM294.678 49.844C295.278 49.844 295.75 50.024 296.094 50.384C296.446 50.744 296.622 51.236 296.622 51.86V55.88C296.622 55.96 296.582 56 296.502 56H295.902C295.822 56 295.782 55.96 295.782 55.88V52.028C295.782 51.588 295.654 51.24 295.398 50.984C295.15 50.72 294.822 50.588 294.414 50.588C293.99 50.588 293.646 50.716 293.382 50.972C293.126 51.228 292.998 51.572 292.998 52.004V55.88C292.998 55.96 292.958 56 292.878 56H292.266C292.186 56 292.146 55.96 292.146 55.88V52.028C292.146 51.588 292.022 51.24 291.774 50.984C291.526 50.72 291.194 50.588 290.778 50.588C290.354 50.588 290.014 50.716 289.758 50.972C289.51 51.228 289.386 51.572 289.386 52.004V55.88C289.386 55.96 289.346 56 289.266 56H288.654C288.574 56 288.534 55.96 288.534 55.88V50.048C288.534 49.968 288.574 49.928 288.654 49.928H289.266C289.346 49.928 289.386 49.968 289.386 50.048V50.528C289.386 50.544 289.39 50.556 289.398 50.564C289.414 50.564 289.43 50.556 289.446 50.54C289.622 50.308 289.846 50.136 290.118 50.024C290.398 49.904 290.706 49.844 291.042 49.844C291.458 49.844 291.814 49.928 292.11 50.096C292.406 50.264 292.63 50.508 292.782 50.828C292.798 50.868 292.818 50.868 292.842 50.828C293.018 50.5 293.266 50.256 293.586 50.096C293.906 49.928 294.27 49.844 294.678 49.844ZM303.034 51.944C303.066 52.168 303.082 52.448 303.082 52.784V53.168C303.082 53.248 303.042 53.288 302.962 53.288H299.086C299.054 53.288 299.038 53.304 299.038 53.336C299.054 53.776 299.078 54.06 299.11 54.188C299.198 54.548 299.386 54.832 299.674 55.04C299.962 55.248 300.33 55.352 300.778 55.352C301.114 55.352 301.41 55.276 301.666 55.124C301.922 54.972 302.122 54.756 302.266 54.476C302.314 54.404 302.37 54.388 302.434 54.428L302.902 54.704C302.966 54.744 302.982 54.8 302.95 54.872C302.75 55.256 302.45 55.56 302.05 55.784C301.65 56 301.19 56.108 300.67 56.108C300.102 56.1 299.626 55.964 299.242 55.7C298.858 55.436 298.582 55.068 298.414 54.596C298.27 54.212 298.198 53.66 298.198 52.94C298.198 52.604 298.202 52.332 298.21 52.124C298.226 51.908 298.258 51.716 298.306 51.548C298.442 51.028 298.714 50.612 299.122 50.3C299.538 49.988 300.038 49.832 300.622 49.832C301.35 49.832 301.91 50.016 302.302 50.384C302.694 50.752 302.938 51.272 303.034 51.944ZM300.622 50.576C300.23 50.576 299.902 50.68 299.638 50.888C299.382 51.088 299.214 51.36 299.134 51.704C299.086 51.872 299.054 52.144 299.038 52.52C299.038 52.552 299.054 52.568 299.086 52.568H302.194C302.226 52.568 302.242 52.552 302.242 52.52C302.226 52.16 302.202 51.904 302.17 51.752C302.082 51.392 301.902 51.108 301.63 50.9C301.366 50.684 301.03 50.576 300.622 50.576ZM307.224 49.868C307.488 49.868 307.716 49.92 307.908 50.024C307.972 50.056 307.996 50.108 307.98 50.18L307.848 50.768C307.824 50.848 307.772 50.872 307.692 50.84C307.556 50.784 307.4 50.756 307.224 50.756L307.068 50.768C306.652 50.784 306.308 50.94 306.036 51.236C305.764 51.524 305.628 51.892 305.628 52.34V55.88C305.628 55.96 305.588 56 305.508 56H304.896C304.816 56 304.776 55.96 304.776 55.88V50.048C304.776 49.968 304.816 49.928 304.896 49.928H305.508C305.588 49.928 305.628 49.968 305.628 50.048V50.78C305.628 50.804 305.632 50.82 305.64 50.828C305.656 50.828 305.668 50.82 305.676 50.804C305.844 50.508 306.056 50.28 306.312 50.12C306.576 49.952 306.88 49.868 307.224 49.868ZM311.104 56.06C310.656 56.06 310.256 55.988 309.904 55.844C309.56 55.7 309.292 55.508 309.1 55.268C308.916 55.028 308.824 54.76 308.824 54.464V54.32C308.824 54.24 308.864 54.2 308.944 54.2H309.52C309.6 54.2 309.64 54.24 309.64 54.32V54.416C309.64 54.68 309.776 54.912 310.048 55.112C310.328 55.304 310.676 55.4 311.092 55.4C311.508 55.4 311.844 55.308 312.1 55.124C312.356 54.932 312.484 54.692 312.484 54.404C312.484 54.204 312.416 54.04 312.28 53.912C312.152 53.784 311.996 53.684 311.812 53.612C311.636 53.54 311.36 53.448 310.984 53.336C310.536 53.208 310.168 53.08 309.88 52.952C309.592 52.824 309.348 52.648 309.148 52.424C308.956 52.192 308.86 51.9 308.86 51.548C308.86 51.036 309.06 50.628 309.46 50.324C309.86 50.02 310.388 49.868 311.044 49.868C311.484 49.868 311.872 49.94 312.208 50.084C312.552 50.228 312.816 50.428 313 50.684C313.184 50.932 313.276 51.212 313.276 51.524V51.56C313.276 51.64 313.236 51.68 313.156 51.68H312.592C312.512 51.68 312.472 51.64 312.472 51.56V51.524C312.472 51.252 312.34 51.024 312.076 50.84C311.82 50.656 311.472 50.564 311.032 50.564C310.624 50.564 310.296 50.648 310.048 50.816C309.8 50.976 309.676 51.2 309.676 51.488C309.676 51.76 309.796 51.968 310.036 52.112C310.276 52.256 310.648 52.4 311.152 52.544C311.616 52.68 311.992 52.808 312.28 52.928C312.568 53.048 312.816 53.224 313.024 53.456C313.232 53.68 313.336 53.976 313.336 54.344C313.336 54.864 313.132 55.28 312.724 55.592C312.316 55.904 311.776 56.06 311.104 56.06Z" fill="#ABBBC2"/>
<circle cx="218" cy="86" r="9" fill="#FFB572"/>
<path d="M243.378 81.2C243.471 81.2 243.518 81.2467 243.518 81.34V82.236C243.518 82.3293 243.471 82.376 243.378 82.376H240.69C240.653 82.376 240.634 82.3947 240.634 82.432V90.86C240.634 90.9533 240.587 91 240.494 91H239.43C239.337 91 239.29 90.9533 239.29 90.86V82.432C239.29 82.3947 239.271 82.376 239.234 82.376H236.672C236.579 82.376 236.532 82.3293 236.532 82.236V81.34C236.532 81.2467 236.579 81.2 236.672 81.2H243.378ZM246.878 91.112C246.188 91.112 245.586 90.9393 245.072 90.594C244.559 90.2393 244.2 89.7493 243.994 89.124C243.826 88.62 243.742 88.0507 243.742 87.416C243.742 86.7533 243.822 86.1933 243.98 85.736C244.186 85.12 244.545 84.6393 245.058 84.294C245.572 83.9393 246.183 83.762 246.892 83.762C247.564 83.762 248.148 83.9393 248.642 84.294C249.146 84.6393 249.506 85.1153 249.72 85.722C249.888 86.198 249.972 86.758 249.972 87.402C249.972 88.0553 249.888 88.6293 249.72 89.124C249.515 89.7493 249.16 90.2393 248.656 90.594C248.152 90.9393 247.56 91.112 246.878 91.112ZM246.878 89.95C247.252 89.95 247.578 89.8473 247.858 89.642C248.138 89.4273 248.339 89.1287 248.46 88.746C248.563 88.3913 248.614 87.9527 248.614 87.43C248.614 86.9073 248.568 86.4733 248.474 86.128C248.353 85.7453 248.152 85.4513 247.872 85.246C247.592 85.0313 247.252 84.924 246.85 84.924C246.468 84.924 246.136 85.0313 245.856 85.246C245.576 85.4513 245.376 85.7453 245.254 86.128C245.152 86.4547 245.1 86.8887 245.1 87.43C245.1 87.9713 245.152 88.41 245.254 88.746C245.366 89.1287 245.562 89.4273 245.842 89.642C246.132 89.8473 246.477 89.95 246.878 89.95ZM257.853 91.112C257.181 91.112 256.583 90.9813 256.061 90.72C255.547 90.4493 255.146 90.0713 254.857 89.586C254.577 89.0913 254.437 88.5267 254.437 87.892V84.308C254.437 83.664 254.577 83.0993 254.857 82.614C255.146 82.1287 255.547 81.7553 256.061 81.494C256.583 81.2233 257.181 81.088 257.853 81.088C258.525 81.088 259.117 81.2187 259.631 81.48C260.144 81.7413 260.541 82.1053 260.821 82.572C261.11 83.0293 261.255 83.5473 261.255 84.126V84.28C261.255 84.3733 261.208 84.42 261.115 84.42H260.051C259.957 84.42 259.911 84.3733 259.911 84.28V84.154C259.911 83.594 259.719 83.1413 259.337 82.796C258.963 82.4413 258.469 82.264 257.853 82.264C257.227 82.264 256.723 82.446 256.341 82.81C255.967 83.174 255.781 83.6593 255.781 84.266V87.934C255.781 88.5407 255.977 89.026 256.369 89.39C256.761 89.754 257.274 89.936 257.909 89.936C258.525 89.936 259.01 89.7773 259.365 89.46C259.729 89.1333 259.911 88.69 259.911 88.13V87.052C259.911 87.0147 259.892 86.996 259.855 86.996H257.965C257.871 86.996 257.825 86.9493 257.825 86.856V85.988C257.825 85.8947 257.871 85.848 257.965 85.848H261.115C261.208 85.848 261.255 85.8947 261.255 85.988V87.766C261.255 88.8393 260.947 89.6653 260.331 90.244C259.724 90.8227 258.898 91.112 257.853 91.112ZM266.019 91.112C265.328 91.112 264.726 90.9393 264.213 90.594C263.7 90.2393 263.34 89.7493 263.135 89.124C262.967 88.62 262.883 88.0507 262.883 87.416C262.883 86.7533 262.962 86.1933 263.121 85.736C263.326 85.12 263.686 84.6393 264.199 84.294C264.712 83.9393 265.324 83.762 266.033 83.762C266.705 83.762 267.288 83.9393 267.783 84.294C268.287 84.6393 268.646 85.1153 268.861 85.722C269.029 86.198 269.113 86.758 269.113 87.402C269.113 88.0553 269.029 88.6293 268.861 89.124C268.656 89.7493 268.301 90.2393 267.797 90.594C267.293 90.9393 266.7 91.112 266.019 91.112ZM266.019 89.95C266.392 89.95 266.719 89.8473 266.999 89.642C267.279 89.4273 267.48 89.1287 267.601 88.746C267.704 88.3913 267.755 87.9527 267.755 87.43C267.755 86.9073 267.708 86.4733 267.615 86.128C267.494 85.7453 267.293 85.4513 267.013 85.246C266.733 85.0313 266.392 84.924 265.991 84.924C265.608 84.924 265.277 85.0313 264.997 85.246C264.717 85.4513 264.516 85.7453 264.395 86.128C264.292 86.4547 264.241 86.8887 264.241 87.43C264.241 87.9713 264.292 88.41 264.395 88.746C264.507 89.1287 264.703 89.4273 264.983 89.642C265.272 89.8473 265.618 89.95 266.019 89.95Z" fill="white"/>
<path d="M238.16 100.636C238.208 100.612 238.26 100.6 238.316 100.6H238.964C239.044 100.6 239.084 100.64 239.084 100.72V108.88C239.084 108.96 239.044 109 238.964 109H238.352C238.272 109 238.232 108.96 238.232 108.88V101.572C238.232 101.556 238.224 101.544 238.208 101.536C238.2 101.528 238.188 101.528 238.172 101.536L236.9 102.052L236.852 102.064C236.804 102.064 236.772 102.032 236.756 101.968L236.696 101.512V101.488C236.696 101.448 236.724 101.408 236.78 101.368L238.16 100.636ZM242.019 108.196C241.995 108.236 242.003 108.256 242.043 108.256H245.811C245.891 108.256 245.931 108.296 245.931 108.376V108.88C245.931 108.96 245.891 109 245.811 109H241.023C240.943 109 240.903 108.96 240.903 108.88V108.376C240.903 108.32 240.923 108.272 240.963 108.232C241.235 107.912 241.847 107.16 242.799 105.976L243.687 104.872C244.439 103.92 244.815 103.18 244.815 102.652C244.815 102.228 244.671 101.888 244.383 101.632C244.095 101.376 243.719 101.248 243.255 101.248C242.799 101.248 242.431 101.38 242.151 101.644C241.871 101.9 241.735 102.24 241.743 102.664V103.036C241.743 103.116 241.703 103.156 241.623 103.156H240.999C240.919 103.156 240.879 103.116 240.879 103.036V102.556C240.895 101.94 241.123 101.444 241.563 101.068C242.011 100.692 242.575 100.504 243.255 100.504C243.735 100.504 244.159 100.596 244.527 100.78C244.895 100.964 245.179 101.22 245.379 101.548C245.579 101.868 245.679 102.232 245.679 102.64C245.679 103.32 245.303 104.14 244.551 105.1C244.159 105.604 243.403 106.532 242.283 107.884L242.019 108.196ZM248.453 108.196C248.429 108.236 248.437 108.256 248.477 108.256H252.245C252.325 108.256 252.365 108.296 252.365 108.376V108.88C252.365 108.96 252.325 109 252.245 109H247.457C247.377 109 247.337 108.96 247.337 108.88V108.376C247.337 108.32 247.357 108.272 247.397 108.232C247.669 107.912 248.281 107.16 249.233 105.976L250.121 104.872C250.873 103.92 251.249 103.18 251.249 102.652C251.249 102.228 251.105 101.888 250.817 101.632C250.529 101.376 250.153 101.248 249.689 101.248C249.233 101.248 248.865 101.38 248.585 101.644C248.305 101.9 248.169 102.24 248.177 102.664V103.036C248.177 103.116 248.137 103.156 248.057 103.156H247.433C247.353 103.156 247.313 103.116 247.313 103.036V102.556C247.329 101.94 247.557 101.444 247.997 101.068C248.445 100.692 249.009 100.504 249.689 100.504C250.169 100.504 250.593 100.596 250.961 100.78C251.329 100.964 251.613 101.22 251.813 101.548C252.013 101.868 252.113 102.232 252.113 102.64C252.113 103.32 251.737 104.14 250.985 105.1C250.593 105.604 249.837 106.532 248.717 107.884L248.453 108.196ZM258.717 109.096C258.141 109.096 257.645 108.948 257.229 108.652C256.821 108.348 256.541 107.94 256.389 107.428C256.285 107.076 256.233 106.58 256.233 105.94C256.233 105.364 256.285 104.876 256.389 104.476C256.533 103.98 256.813 103.584 257.229 103.288C257.645 102.984 258.141 102.832 258.717 102.832C259.301 102.832 259.805 102.98 260.229 103.276C260.661 103.572 260.941 103.94 261.069 104.38C261.109 104.524 261.133 104.644 261.141 104.74V104.764C261.141 104.82 261.105 104.856 261.033 104.872L260.433 104.956H260.409C260.353 104.956 260.317 104.92 260.301 104.848L260.265 104.668C260.193 104.364 260.017 104.108 259.737 103.9C259.457 103.684 259.117 103.576 258.717 103.576C258.317 103.576 257.981 103.684 257.709 103.9C257.445 104.108 257.273 104.388 257.193 104.74C257.121 105.044 257.085 105.448 257.085 105.952C257.085 106.48 257.121 106.888 257.193 107.176C257.273 107.536 257.445 107.824 257.709 108.04C257.981 108.248 258.317 108.352 258.717 108.352C259.109 108.352 259.445 108.252 259.725 108.052C260.013 107.844 260.193 107.58 260.265 107.26V107.212L260.277 107.164C260.285 107.084 260.333 107.052 260.421 107.068L261.009 107.164C261.089 107.18 261.125 107.224 261.117 107.296L261.069 107.536C260.949 108 260.673 108.376 260.241 108.664C259.809 108.952 259.301 109.096 258.717 109.096ZM266.331 103.048C266.331 102.968 266.371 102.928 266.451 102.928H267.063C267.143 102.928 267.183 102.968 267.183 103.048V108.88C267.183 108.96 267.143 109 267.063 109H266.451C266.371 109 266.331 108.96 266.331 108.88V108.364C266.331 108.348 266.323 108.336 266.307 108.328C266.291 108.32 266.279 108.324 266.271 108.34C265.935 108.836 265.403 109.084 264.675 109.084C264.291 109.084 263.935 109.008 263.607 108.856C263.287 108.696 263.031 108.468 262.839 108.172C262.655 107.876 262.563 107.52 262.563 107.104V103.048C262.563 102.968 262.603 102.928 262.683 102.928H263.295C263.375 102.928 263.415 102.968 263.415 103.048V106.852C263.415 107.308 263.543 107.672 263.799 107.944C264.055 108.208 264.403 108.34 264.843 108.34C265.299 108.34 265.659 108.204 265.923 107.932C266.195 107.66 266.331 107.3 266.331 106.852V103.048ZM271.085 109.06C270.637 109.06 270.237 108.988 269.885 108.844C269.541 108.7 269.273 108.508 269.081 108.268C268.897 108.028 268.805 107.76 268.805 107.464V107.32C268.805 107.24 268.845 107.2 268.925 107.2H269.501C269.581 107.2 269.621 107.24 269.621 107.32V107.416C269.621 107.68 269.757 107.912 270.029 108.112C270.309 108.304 270.657 108.4 271.073 108.4C271.489 108.4 271.825 108.308 272.081 108.124C272.337 107.932 272.465 107.692 272.465 107.404C272.465 107.204 272.397 107.04 272.261 106.912C272.133 106.784 271.977 106.684 271.793 106.612C271.617 106.54 271.341 106.448 270.965 106.336C270.517 106.208 270.149 106.08 269.861 105.952C269.573 105.824 269.329 105.648 269.129 105.424C268.937 105.192 268.841 104.9 268.841 104.548C268.841 104.036 269.041 103.628 269.441 103.324C269.841 103.02 270.369 102.868 271.025 102.868C271.465 102.868 271.853 102.94 272.189 103.084C272.533 103.228 272.797 103.428 272.981 103.684C273.165 103.932 273.257 104.212 273.257 104.524V104.56C273.257 104.64 273.217 104.68 273.137 104.68H272.573C272.493 104.68 272.453 104.64 272.453 104.56V104.524C272.453 104.252 272.321 104.024 272.057 103.84C271.801 103.656 271.453 103.564 271.013 103.564C270.605 103.564 270.277 103.648 270.029 103.816C269.781 103.976 269.657 104.2 269.657 104.488C269.657 104.76 269.777 104.968 270.017 105.112C270.257 105.256 270.629 105.4 271.133 105.544C271.597 105.68 271.973 105.808 272.261 105.928C272.549 106.048 272.797 106.224 273.005 106.456C273.213 106.68 273.317 106.976 273.317 107.344C273.317 107.864 273.113 108.28 272.705 108.592C272.297 108.904 271.757 109.06 271.085 109.06ZM277.582 103.516C277.582 103.596 277.542 103.636 277.462 103.636H276.106C276.074 103.636 276.058 103.652 276.058 103.684V107.224C276.058 107.608 276.142 107.88 276.31 108.04C276.486 108.192 276.758 108.268 277.126 108.268H277.426C277.506 108.268 277.546 108.308 277.546 108.388V108.88C277.546 108.96 277.506 109 277.426 109C277.33 109.008 277.182 109.012 276.982 109.012C276.406 109.012 275.97 108.904 275.674 108.688C275.378 108.472 275.23 108.072 275.23 107.488V103.684C275.23 103.652 275.214 103.636 275.182 103.636H274.45C274.37 103.636 274.33 103.596 274.33 103.516V103.048C274.33 102.968 274.37 102.928 274.45 102.928H275.182C275.214 102.928 275.23 102.912 275.23 102.88V101.488C275.23 101.408 275.27 101.368 275.35 101.368H275.938C276.018 101.368 276.058 101.408 276.058 101.488V102.88C276.058 102.912 276.074 102.928 276.106 102.928H277.462C277.542 102.928 277.582 102.968 277.582 103.048V103.516ZM281.37 109.096C280.794 109.096 280.298 108.948 279.882 108.652C279.466 108.356 279.178 107.948 279.018 107.428C278.906 107.06 278.85 106.568 278.85 105.952C278.85 105.336 278.906 104.848 279.018 104.488C279.17 103.976 279.454 103.572 279.87 103.276C280.286 102.98 280.79 102.832 281.382 102.832C281.95 102.832 282.438 102.98 282.846 103.276C283.262 103.572 283.546 103.972 283.698 104.476C283.81 104.82 283.866 105.312 283.866 105.952C283.866 106.6 283.81 107.092 283.698 107.428C283.546 107.948 283.262 108.356 282.846 108.652C282.438 108.948 281.946 109.096 281.37 109.096ZM281.37 108.352C281.754 108.352 282.082 108.248 282.354 108.04C282.626 107.824 282.81 107.536 282.906 107.176C282.978 106.888 283.014 106.484 283.014 105.964C283.014 105.436 282.982 105.032 282.918 104.752C282.822 104.392 282.634 104.108 282.354 103.9C282.082 103.684 281.75 103.576 281.358 103.576C280.966 103.576 280.634 103.684 280.362 103.9C280.09 104.108 279.906 104.392 279.81 104.752C279.746 105.032 279.714 105.436 279.714 105.964C279.714 106.492 279.746 106.896 279.81 107.176C279.898 107.536 280.078 107.824 280.35 108.04C280.63 108.248 280.97 108.352 281.37 108.352ZM291.737 102.844C292.337 102.844 292.809 103.024 293.153 103.384C293.505 103.744 293.681 104.236 293.681 104.86V108.88C293.681 108.96 293.641 109 293.561 109H292.961C292.881 109 292.841 108.96 292.841 108.88V105.028C292.841 104.588 292.713 104.24 292.457 103.984C292.209 103.72 291.881 103.588 291.473 103.588C291.049 103.588 290.705 103.716 290.441 103.972C290.185 104.228 290.057 104.572 290.057 105.004V108.88C290.057 108.96 290.017 109 289.937 109H289.325C289.245 109 289.205 108.96 289.205 108.88V105.028C289.205 104.588 289.081 104.24 288.833 103.984C288.585 103.72 288.253 103.588 287.837 103.588C287.413 103.588 287.073 103.716 286.817 103.972C286.569 104.228 286.445 104.572 286.445 105.004V108.88C286.445 108.96 286.405 109 286.325 109H285.713C285.633 109 285.593 108.96 285.593 108.88V103.048C285.593 102.968 285.633 102.928 285.713 102.928H286.325C286.405 102.928 286.445 102.968 286.445 103.048V103.528C286.445 103.544 286.449 103.556 286.457 103.564C286.473 103.564 286.489 103.556 286.505 103.54C286.681 103.308 286.905 103.136 287.177 103.024C287.457 102.904 287.765 102.844 288.101 102.844C288.517 102.844 288.873 102.928 289.169 103.096C289.465 103.264 289.689 103.508 289.841 103.828C289.857 103.868 289.877 103.868 289.901 103.828C290.077 103.5 290.325 103.256 290.645 103.096C290.965 102.928 291.329 102.844 291.737 102.844ZM300.093 104.944C300.125 105.168 300.141 105.448 300.141 105.784V106.168C300.141 106.248 300.101 106.288 300.021 106.288H296.145C296.113 106.288 296.097 106.304 296.097 106.336C296.113 106.776 296.137 107.06 296.169 107.188C296.257 107.548 296.445 107.832 296.733 108.04C297.021 108.248 297.389 108.352 297.837 108.352C298.173 108.352 298.469 108.276 298.725 108.124C298.981 107.972 299.181 107.756 299.325 107.476C299.373 107.404 299.429 107.388 299.493 107.428L299.961 107.704C300.025 107.744 300.041 107.8 300.009 107.872C299.809 108.256 299.509 108.56 299.109 108.784C298.709 109 298.249 109.108 297.729 109.108C297.161 109.1 296.685 108.964 296.301 108.7C295.917 108.436 295.641 108.068 295.473 107.596C295.329 107.212 295.257 106.66 295.257 105.94C295.257 105.604 295.261 105.332 295.269 105.124C295.285 104.908 295.317 104.716 295.365 104.548C295.501 104.028 295.773 103.612 296.181 103.3C296.597 102.988 297.097 102.832 297.681 102.832C298.409 102.832 298.969 103.016 299.361 103.384C299.753 103.752 299.997 104.272 300.093 104.944ZM297.681 103.576C297.289 103.576 296.961 103.68 296.697 103.888C296.441 104.088 296.273 104.36 296.193 104.704C296.145 104.872 296.113 105.144 296.097 105.52C296.097 105.552 296.113 105.568 296.145 105.568H299.253C299.285 105.568 299.301 105.552 299.301 105.52C299.285 105.16 299.261 104.904 299.229 104.752C299.141 104.392 298.961 104.108 298.689 103.9C298.425 103.684 298.089 103.576 297.681 103.576ZM304.283 102.868C304.547 102.868 304.775 102.92 304.967 103.024C305.031 103.056 305.055 103.108 305.039 103.18L304.907 103.768C304.883 103.848 304.831 103.872 304.751 103.84C304.615 103.784 304.459 103.756 304.283 103.756L304.127 103.768C303.711 103.784 303.367 103.94 303.095 104.236C302.823 104.524 302.687 104.892 302.687 105.34V108.88C302.687 108.96 302.647 109 302.567 109H301.955C301.875 109 301.835 108.96 301.835 108.88V103.048C301.835 102.968 301.875 102.928 301.955 102.928H302.567C302.647 102.928 302.687 102.968 302.687 103.048V103.78C302.687 103.804 302.691 103.82 302.699 103.828C302.715 103.828 302.727 103.82 302.735 103.804C302.903 103.508 303.115 103.28 303.371 103.12C303.635 102.952 303.939 102.868 304.283 102.868ZM308.163 109.06C307.715 109.06 307.315 108.988 306.963 108.844C306.619 108.7 306.351 108.508 306.159 108.268C305.975 108.028 305.883 107.76 305.883 107.464V107.32C305.883 107.24 305.923 107.2 306.003 107.2H306.579C306.659 107.2 306.699 107.24 306.699 107.32V107.416C306.699 107.68 306.835 107.912 307.107 108.112C307.387 108.304 307.735 108.4 308.151 108.4C308.567 108.4 308.903 108.308 309.159 108.124C309.415 107.932 309.543 107.692 309.543 107.404C309.543 107.204 309.475 107.04 309.339 106.912C309.211 106.784 309.055 106.684 308.871 106.612C308.695 106.54 308.419 106.448 308.043 106.336C307.595 106.208 307.227 106.08 306.939 105.952C306.651 105.824 306.407 105.648 306.207 105.424C306.015 105.192 305.919 104.9 305.919 104.548C305.919 104.036 306.119 103.628 306.519 103.324C306.919 103.02 307.447 102.868 308.103 102.868C308.543 102.868 308.931 102.94 309.267 103.084C309.611 103.228 309.875 103.428 310.059 103.684C310.243 103.932 310.335 104.212 310.335 104.524V104.56C310.335 104.64 310.295 104.68 310.215 104.68H309.651C309.571 104.68 309.531 104.64 309.531 104.56V104.524C309.531 104.252 309.399 104.024 309.135 103.84C308.879 103.656 308.531 103.564 308.091 103.564C307.683 103.564 307.355 103.648 307.107 103.816C306.859 103.976 306.735 104.2 306.735 104.488C306.735 104.76 306.855 104.968 307.095 105.112C307.335 105.256 307.707 105.4 308.211 105.544C308.675 105.68 309.051 105.808 309.339 105.928C309.627 106.048 309.875 106.224 310.083 106.456C310.291 106.68 310.395 106.976 310.395 107.344C310.395 107.864 310.191 108.28 309.783 108.592C309.375 108.904 308.835 109.06 308.163 109.06Z" fill="#ABBBC2"/>
<circle cx="218" cy="139" r="9" fill="#65B0F6"/>
<path d="M237.288 144C237.195 144 237.148 143.953 237.148 143.86V134.34C237.148 134.247 237.195 134.2 237.288 134.2H240.676C241.647 134.2 242.421 134.457 243 134.97C243.579 135.474 243.868 136.151 243.868 137V141.2C243.868 142.049 243.579 142.731 243 143.244C242.421 143.748 241.647 144 240.676 144H237.288ZM238.492 142.782C238.492 142.819 238.511 142.838 238.548 142.838H240.732C241.273 142.838 241.703 142.675 242.02 142.348C242.347 142.012 242.515 141.564 242.524 141.004V137.196C242.524 136.636 242.361 136.193 242.034 135.866C241.717 135.53 241.283 135.362 240.732 135.362H238.548C238.511 135.362 238.492 135.381 238.492 135.418V142.782ZM251.402 139.548C251.44 139.931 251.454 140.36 251.444 140.836C251.444 140.929 251.398 140.976 251.304 140.976H246.838C246.801 140.976 246.782 140.995 246.782 141.032C246.782 141.349 246.81 141.592 246.866 141.76C246.969 142.133 247.174 142.427 247.482 142.642C247.8 142.847 248.196 142.95 248.672 142.95C249.363 142.95 249.895 142.665 250.268 142.096C250.315 142.003 250.376 141.989 250.45 142.054L251.248 142.586C251.314 142.642 251.328 142.703 251.29 142.768C251.029 143.188 250.656 143.519 250.17 143.762C249.694 144.005 249.153 144.126 248.546 144.126C247.865 144.126 247.291 143.977 246.824 143.678C246.358 143.379 246.008 142.955 245.774 142.404C245.55 141.853 245.438 141.186 245.438 140.402C245.438 139.721 245.49 139.203 245.592 138.848C245.76 138.204 246.096 137.695 246.6 137.322C247.104 136.949 247.716 136.762 248.434 136.762C249.377 136.762 250.082 137 250.548 137.476C251.015 137.943 251.3 138.633 251.402 139.548ZM248.434 137.924C248.033 137.924 247.702 138.027 247.44 138.232C247.179 138.428 247.002 138.694 246.908 139.03C246.843 139.235 246.801 139.497 246.782 139.814C246.782 139.851 246.801 139.87 246.838 139.87H250.044C250.082 139.87 250.1 139.851 250.1 139.814C250.082 139.506 250.054 139.277 250.016 139.128C249.923 138.764 249.736 138.475 249.456 138.26C249.186 138.036 248.845 137.924 248.434 137.924ZM253.28 144C253.187 144 253.14 143.953 253.14 143.86V134.34C253.14 134.247 253.187 134.2 253.28 134.2H254.344C254.437 134.2 254.484 134.247 254.484 134.34V143.86C254.484 143.953 254.437 144 254.344 144H253.28ZM257.247 135.754C256.986 135.754 256.771 135.67 256.603 135.502C256.435 135.334 256.351 135.119 256.351 134.858C256.351 134.597 256.435 134.382 256.603 134.214C256.771 134.046 256.986 133.962 257.247 133.962C257.508 133.962 257.723 134.046 257.891 134.214C258.059 134.382 258.143 134.597 258.143 134.858C258.143 135.119 258.059 135.334 257.891 135.502C257.723 135.67 257.508 135.754 257.247 135.754ZM256.687 143.986C256.594 143.986 256.547 143.939 256.547 143.846V137.014C256.547 136.921 256.594 136.874 256.687 136.874H257.751C257.844 136.874 257.891 136.921 257.891 137.014V143.846C257.891 143.939 257.844 143.986 257.751 143.986H256.687ZM261.879 144C261.795 144 261.739 143.963 261.711 143.888L259.429 137.028L259.415 136.972C259.415 136.907 259.457 136.874 259.541 136.874H260.717C260.801 136.874 260.857 136.911 260.885 136.986L262.425 142.054C262.435 142.073 262.449 142.082 262.467 142.082C262.486 142.082 262.5 142.073 262.509 142.054L264.035 136.986C264.063 136.911 264.119 136.874 264.203 136.874L265.379 136.888C265.482 136.888 265.519 136.939 265.491 137.042L263.223 143.888C263.195 143.963 263.139 144 263.055 144H261.879ZM272.334 139.548C272.371 139.931 272.385 140.36 272.376 140.836C272.376 140.929 272.329 140.976 272.236 140.976H267.77C267.733 140.976 267.714 140.995 267.714 141.032C267.714 141.349 267.742 141.592 267.798 141.76C267.901 142.133 268.106 142.427 268.414 142.642C268.731 142.847 269.128 142.95 269.604 142.95C270.295 142.95 270.827 142.665 271.2 142.096C271.247 142.003 271.307 141.989 271.382 142.054L272.18 142.586C272.245 142.642 272.259 142.703 272.222 142.768C271.961 143.188 271.587 143.519 271.102 143.762C270.626 144.005 270.085 144.126 269.478 144.126C268.797 144.126 268.223 143.977 267.756 143.678C267.289 143.379 266.939 142.955 266.706 142.404C266.482 141.853 266.37 141.186 266.37 140.402C266.37 139.721 266.421 139.203 266.524 138.848C266.692 138.204 267.028 137.695 267.532 137.322C268.036 136.949 268.647 136.762 269.366 136.762C270.309 136.762 271.013 137 271.48 137.476C271.947 137.943 272.231 138.633 272.334 139.548ZM269.366 137.924C268.965 137.924 268.633 138.027 268.372 138.232C268.111 138.428 267.933 138.694 267.84 139.03C267.775 139.235 267.733 139.497 267.714 139.814C267.714 139.851 267.733 139.87 267.77 139.87H270.976C271.013 139.87 271.032 139.851 271.032 139.814C271.013 139.506 270.985 139.277 270.948 139.128C270.855 138.764 270.668 138.475 270.388 138.26C270.117 138.036 269.777 137.924 269.366 137.924ZM277.194 136.804C277.492 136.804 277.763 136.865 278.006 136.986C278.071 137.014 278.094 137.07 278.076 137.154L277.852 138.204C277.842 138.288 277.786 138.316 277.684 138.288C277.525 138.223 277.338 138.19 277.124 138.19L276.928 138.204C276.489 138.223 276.125 138.377 275.836 138.666C275.556 138.946 275.416 139.315 275.416 139.772V143.86C275.416 143.953 275.369 144 275.276 144H274.212C274.118 144 274.072 143.953 274.072 143.86V137.014C274.072 136.921 274.118 136.874 274.212 136.874H275.276C275.369 136.874 275.416 136.921 275.416 137.014V137.756C275.416 137.784 275.42 137.803 275.43 137.812C275.448 137.812 275.462 137.803 275.472 137.784C275.892 137.131 276.466 136.804 277.194 136.804ZM279.372 146.786C279.306 146.786 279.274 146.739 279.274 146.646V145.82C279.274 145.727 279.32 145.68 279.414 145.68H279.442C279.815 145.671 280.109 145.624 280.324 145.54C280.538 145.456 280.716 145.297 280.856 145.064C280.996 144.84 281.131 144.499 281.262 144.042C281.271 144.033 281.271 144.019 281.262 144C281.262 143.972 281.262 143.958 281.262 143.958L278.924 137.028L278.91 136.972C278.91 136.907 278.952 136.874 279.036 136.874H280.17C280.254 136.874 280.31 136.911 280.338 136.986L281.92 142.264C281.929 142.283 281.943 142.292 281.962 142.292C281.98 142.292 281.994 142.283 282.004 142.264L283.572 136.986C283.6 136.911 283.656 136.874 283.74 136.874H284.846C284.948 136.874 284.986 136.925 284.958 137.028L282.41 144.49C282.195 145.134 281.98 145.61 281.766 145.918C281.551 146.235 281.271 146.459 280.926 146.59C280.58 146.721 280.095 146.786 279.47 146.786H279.372Z" fill="white"/>
<path d="M237.824 161.196C237.8 161.236 237.808 161.256 237.848 161.256H241.616C241.696 161.256 241.736 161.296 241.736 161.376V161.88C241.736 161.96 241.696 162 241.616 162H236.828C236.748 162 236.708 161.96 236.708 161.88V161.376C236.708 161.32 236.728 161.272 236.768 161.232C237.04 160.912 237.652 160.16 238.604 158.976L239.492 157.872C240.244 156.92 240.62 156.18 240.62 155.652C240.62 155.228 240.476 154.888 240.188 154.632C239.9 154.376 239.524 154.248 239.06 154.248C238.604 154.248 238.236 154.38 237.956 154.644C237.676 154.9 237.54 155.24 237.548 155.664V156.036C237.548 156.116 237.508 156.156 237.428 156.156H236.804C236.724 156.156 236.684 156.116 236.684 156.036V155.556C236.7 154.94 236.928 154.444 237.368 154.068C237.816 153.692 238.38 153.504 239.06 153.504C239.54 153.504 239.964 153.596 240.332 153.78C240.7 153.964 240.984 154.22 241.184 154.548C241.384 154.868 241.484 155.232 241.484 155.64C241.484 156.32 241.108 157.14 240.356 158.1C239.964 158.604 239.208 159.532 238.088 160.884L237.824 161.196ZM247.762 158.052C247.93 158.412 248.014 158.868 248.014 159.42C248.014 159.916 247.95 160.316 247.822 160.62C247.654 161.084 247.386 161.444 247.018 161.7C246.65 161.956 246.19 162.084 245.638 162.084C245.062 162.084 244.578 161.948 244.186 161.676C243.794 161.404 243.518 161.02 243.358 160.524C243.262 160.204 243.214 159.828 243.214 159.396V155.652C243.214 154.996 243.43 154.476 243.862 154.092C244.294 153.7 244.858 153.504 245.554 153.504C246.234 153.504 246.782 153.692 247.198 154.068C247.614 154.444 247.822 154.94 247.822 155.556V155.724C247.822 155.804 247.782 155.844 247.702 155.844H247.09C247.01 155.844 246.97 155.804 246.97 155.724V155.628C246.97 155.22 246.838 154.888 246.574 154.632C246.31 154.376 245.97 154.248 245.554 154.248C245.122 154.248 244.766 154.384 244.486 154.656C244.206 154.92 244.066 155.272 244.066 155.712V157.476C244.066 157.492 244.074 157.504 244.09 157.512C244.106 157.512 244.118 157.504 244.126 157.488C244.478 157.008 245.01 156.768 245.722 156.768C246.226 156.768 246.646 156.88 246.982 157.104C247.326 157.328 247.586 157.644 247.762 158.052ZM247.018 160.332C247.114 160.084 247.162 159.78 247.162 159.42C247.162 159.004 247.106 158.684 246.994 158.46C246.898 158.164 246.73 157.932 246.49 157.764C246.25 157.596 245.954 157.512 245.602 157.512C245.25 157.512 244.954 157.6 244.714 157.776C244.474 157.944 244.306 158.18 244.21 158.484C244.114 158.732 244.066 159.056 244.066 159.456C244.066 159.808 244.106 160.1 244.186 160.332C244.282 160.636 244.45 160.88 244.69 161.064C244.938 161.248 245.246 161.34 245.614 161.34C245.958 161.34 246.254 161.256 246.502 161.088C246.75 160.912 246.922 160.66 247.018 160.332ZM254.369 158.916C254.449 158.916 254.489 158.956 254.489 159.036V159.564C254.489 159.644 254.449 159.684 254.369 159.684H253.853C253.821 159.684 253.805 159.7 253.805 159.732V161.88C253.805 161.96 253.765 162 253.685 162H253.073C252.993 162 252.953 161.96 252.953 161.88V159.732C252.953 159.7 252.937 159.684 252.905 159.684H249.317C249.237 159.684 249.197 159.644 249.197 159.564V159.12C249.197 159.08 249.209 159.032 249.233 158.976L251.693 153.684C251.717 153.628 251.761 153.6 251.825 153.6H252.461C252.501 153.6 252.529 153.616 252.545 153.648C252.569 153.672 252.573 153.704 252.557 153.744L250.169 158.856C250.161 158.872 250.161 158.888 250.169 158.904C250.177 158.912 250.189 158.916 250.205 158.916H252.905C252.937 158.916 252.953 158.9 252.953 158.868V156.936C252.953 156.856 252.993 156.816 253.073 156.816H253.685C253.765 156.816 253.805 156.856 253.805 156.936V158.868C253.805 158.9 253.821 158.916 253.853 158.916H254.369ZM260.873 162.096C260.297 162.096 259.801 161.948 259.385 161.652C258.977 161.348 258.697 160.94 258.545 160.428C258.441 160.076 258.389 159.58 258.389 158.94C258.389 158.364 258.441 157.876 258.545 157.476C258.689 156.98 258.969 156.584 259.385 156.288C259.801 155.984 260.297 155.832 260.873 155.832C261.457 155.832 261.961 155.98 262.385 156.276C262.817 156.572 263.097 156.94 263.225 157.38C263.265 157.524 263.289 157.644 263.297 157.74V157.764C263.297 157.82 263.261 157.856 263.189 157.872L262.589 157.956H262.565C262.509 157.956 262.473 157.92 262.457 157.848L262.421 157.668C262.349 157.364 262.173 157.108 261.893 156.9C261.613 156.684 261.273 156.576 260.873 156.576C260.473 156.576 260.137 156.684 259.865 156.9C259.601 157.108 259.429 157.388 259.349 157.74C259.277 158.044 259.241 158.448 259.241 158.952C259.241 159.48 259.277 159.888 259.349 160.176C259.429 160.536 259.601 160.824 259.865 161.04C260.137 161.248 260.473 161.352 260.873 161.352C261.265 161.352 261.601 161.252 261.881 161.052C262.169 160.844 262.349 160.58 262.421 160.26V160.212L262.433 160.164C262.441 160.084 262.489 160.052 262.577 160.068L263.165 160.164C263.245 160.18 263.281 160.224 263.273 160.296L263.225 160.536C263.105 161 262.829 161.376 262.397 161.664C261.965 161.952 261.457 162.096 260.873 162.096ZM268.487 156.048C268.487 155.968 268.527 155.928 268.607 155.928H269.219C269.299 155.928 269.339 155.968 269.339 156.048V161.88C269.339 161.96 269.299 162 269.219 162H268.607C268.527 162 268.487 161.96 268.487 161.88V161.364C268.487 161.348 268.479 161.336 268.463 161.328C268.447 161.32 268.435 161.324 268.427 161.34C268.091 161.836 267.559 162.084 266.831 162.084C266.447 162.084 266.091 162.008 265.763 161.856C265.443 161.696 265.187 161.468 264.995 161.172C264.811 160.876 264.719 160.52 264.719 160.104V156.048C264.719 155.968 264.759 155.928 264.839 155.928H265.451C265.531 155.928 265.571 155.968 265.571 156.048V159.852C265.571 160.308 265.699 160.672 265.955 160.944C266.211 161.208 266.559 161.34 266.999 161.34C267.455 161.34 267.815 161.204 268.079 160.932C268.351 160.66 268.487 160.3 268.487 159.852V156.048ZM273.241 162.06C272.793 162.06 272.393 161.988 272.041 161.844C271.697 161.7 271.429 161.508 271.237 161.268C271.053 161.028 270.961 160.76 270.961 160.464V160.32C270.961 160.24 271.001 160.2 271.081 160.2H271.657C271.737 160.2 271.777 160.24 271.777 160.32V160.416C271.777 160.68 271.913 160.912 272.185 161.112C272.465 161.304 272.813 161.4 273.229 161.4C273.645 161.4 273.981 161.308 274.237 161.124C274.493 160.932 274.621 160.692 274.621 160.404C274.621 160.204 274.553 160.04 274.417 159.912C274.289 159.784 274.133 159.684 273.949 159.612C273.773 159.54 273.497 159.448 273.121 159.336C272.673 159.208 272.305 159.08 272.017 158.952C271.729 158.824 271.485 158.648 271.285 158.424C271.093 158.192 270.997 157.9 270.997 157.548C270.997 157.036 271.197 156.628 271.597 156.324C271.997 156.02 272.525 155.868 273.181 155.868C273.621 155.868 274.009 155.94 274.345 156.084C274.689 156.228 274.953 156.428 275.137 156.684C275.321 156.932 275.413 157.212 275.413 157.524V157.56C275.413 157.64 275.373 157.68 275.293 157.68H274.729C274.649 157.68 274.609 157.64 274.609 157.56V157.524C274.609 157.252 274.477 157.024 274.213 156.84C273.957 156.656 273.609 156.564 273.169 156.564C272.761 156.564 272.433 156.648 272.185 156.816C271.937 156.976 271.813 157.2 271.813 157.488C271.813 157.76 271.933 157.968 272.173 158.112C272.413 158.256 272.785 158.4 273.289 158.544C273.753 158.68 274.129 158.808 274.417 158.928C274.705 159.048 274.953 159.224 275.161 159.456C275.369 159.68 275.473 159.976 275.473 160.344C275.473 160.864 275.269 161.28 274.861 161.592C274.453 161.904 273.913 162.06 273.241 162.06ZM279.739 156.516C279.739 156.596 279.699 156.636 279.619 156.636H278.263C278.231 156.636 278.215 156.652 278.215 156.684V160.224C278.215 160.608 278.299 160.88 278.467 161.04C278.643 161.192 278.915 161.268 279.283 161.268H279.583C279.663 161.268 279.703 161.308 279.703 161.388V161.88C279.703 161.96 279.663 162 279.583 162C279.487 162.008 279.339 162.012 279.139 162.012C278.563 162.012 278.127 161.904 277.831 161.688C277.535 161.472 277.387 161.072 277.387 160.488V156.684C277.387 156.652 277.371 156.636 277.339 156.636H276.607C276.527 156.636 276.487 156.596 276.487 156.516V156.048C276.487 155.968 276.527 155.928 276.607 155.928H277.339C277.371 155.928 277.387 155.912 277.387 155.88V154.488C277.387 154.408 277.427 154.368 277.507 154.368H278.095C278.175 154.368 278.215 154.408 278.215 154.488V155.88C278.215 155.912 278.231 155.928 278.263 155.928H279.619C279.699 155.928 279.739 155.968 279.739 156.048V156.516ZM283.526 162.096C282.95 162.096 282.454 161.948 282.038 161.652C281.622 161.356 281.334 160.948 281.174 160.428C281.062 160.06 281.006 159.568 281.006 158.952C281.006 158.336 281.062 157.848 281.174 157.488C281.326 156.976 281.61 156.572 282.026 156.276C282.442 155.98 282.946 155.832 283.538 155.832C284.106 155.832 284.594 155.98 285.002 156.276C285.418 156.572 285.702 156.972 285.854 157.476C285.966 157.82 286.022 158.312 286.022 158.952C286.022 159.6 285.966 160.092 285.854 160.428C285.702 160.948 285.418 161.356 285.002 161.652C284.594 161.948 284.102 162.096 283.526 162.096ZM283.526 161.352C283.91 161.352 284.238 161.248 284.51 161.04C284.782 160.824 284.966 160.536 285.062 160.176C285.134 159.888 285.17 159.484 285.17 158.964C285.17 158.436 285.138 158.032 285.074 157.752C284.978 157.392 284.79 157.108 284.51 156.9C284.238 156.684 283.906 156.576 283.514 156.576C283.122 156.576 282.79 156.684 282.518 156.9C282.246 157.108 282.062 157.392 281.966 157.752C281.902 158.032 281.87 158.436 281.87 158.964C281.87 159.492 281.902 159.896 281.966 160.176C282.054 160.536 282.234 160.824 282.506 161.04C282.786 161.248 283.126 161.352 283.526 161.352ZM293.893 155.844C294.493 155.844 294.965 156.024 295.309 156.384C295.661 156.744 295.837 157.236 295.837 157.86V161.88C295.837 161.96 295.797 162 295.717 162H295.117C295.037 162 294.997 161.96 294.997 161.88V158.028C294.997 157.588 294.869 157.24 294.613 156.984C294.365 156.72 294.037 156.588 293.629 156.588C293.205 156.588 292.861 156.716 292.597 156.972C292.341 157.228 292.213 157.572 292.213 158.004V161.88C292.213 161.96 292.173 162 292.093 162H291.481C291.401 162 291.361 161.96 291.361 161.88V158.028C291.361 157.588 291.237 157.24 290.989 156.984C290.741 156.72 290.409 156.588 289.993 156.588C289.569 156.588 289.229 156.716 288.973 156.972C288.725 157.228 288.601 157.572 288.601 158.004V161.88C288.601 161.96 288.561 162 288.481 162H287.869C287.789 162 287.749 161.96 287.749 161.88V156.048C287.749 155.968 287.789 155.928 287.869 155.928H288.481C288.561 155.928 288.601 155.968 288.601 156.048V156.528C288.601 156.544 288.605 156.556 288.613 156.564C288.629 156.564 288.645 156.556 288.661 156.54C288.837 156.308 289.061 156.136 289.333 156.024C289.613 155.904 289.921 155.844 290.257 155.844C290.673 155.844 291.029 155.928 291.325 156.096C291.621 156.264 291.845 156.508 291.997 156.828C292.013 156.868 292.033 156.868 292.057 156.828C292.233 156.5 292.481 156.256 292.801 156.096C293.121 155.928 293.485 155.844 293.893 155.844ZM302.249 157.944C302.281 158.168 302.297 158.448 302.297 158.784V159.168C302.297 159.248 302.257 159.288 302.177 159.288H298.301C298.269 159.288 298.253 159.304 298.253 159.336C298.269 159.776 298.293 160.06 298.325 160.188C298.413 160.548 298.601 160.832 298.889 161.04C299.177 161.248 299.545 161.352 299.993 161.352C300.329 161.352 300.625 161.276 300.881 161.124C301.137 160.972 301.337 160.756 301.481 160.476C301.529 160.404 301.585 160.388 301.649 160.428L302.117 160.704C302.181 160.744 302.197 160.8 302.165 160.872C301.965 161.256 301.665 161.56 301.265 161.784C300.865 162 300.405 162.108 299.885 162.108C299.317 162.1 298.841 161.964 298.457 161.7C298.073 161.436 297.797 161.068 297.629 160.596C297.485 160.212 297.413 159.66 297.413 158.94C297.413 158.604 297.417 158.332 297.425 158.124C297.441 157.908 297.473 157.716 297.521 157.548C297.657 157.028 297.929 156.612 298.337 156.3C298.753 155.988 299.253 155.832 299.837 155.832C300.565 155.832 301.125 156.016 301.517 156.384C301.909 156.752 302.153 157.272 302.249 157.944ZM299.837 156.576C299.445 156.576 299.117 156.68 298.853 156.888C298.597 157.088 298.429 157.36 298.349 157.704C298.301 157.872 298.269 158.144 298.253 158.52C298.253 158.552 298.269 158.568 298.301 158.568H301.409C301.441 158.568 301.457 158.552 301.457 158.52C301.441 158.16 301.417 157.904 301.385 157.752C301.297 157.392 301.117 157.108 300.845 156.9C300.581 156.684 300.245 156.576 299.837 156.576ZM306.439 155.868C306.703 155.868 306.931 155.92 307.123 156.024C307.187 156.056 307.211 156.108 307.195 156.18L307.063 156.768C307.039 156.848 306.987 156.872 306.907 156.84C306.771 156.784 306.615 156.756 306.439 156.756L306.283 156.768C305.867 156.784 305.523 156.94 305.251 157.236C304.979 157.524 304.843 157.892 304.843 158.34V161.88C304.843 161.96 304.803 162 304.723 162H304.111C304.031 162 303.991 161.96 303.991 161.88V156.048C303.991 155.968 304.031 155.928 304.111 155.928H304.723C304.803 155.928 304.843 155.968 304.843 156.048V156.78C304.843 156.804 304.847 156.82 304.855 156.828C304.871 156.828 304.883 156.82 304.891 156.804C305.059 156.508 305.271 156.28 305.527 156.12C305.791 155.952 306.095 155.868 306.439 155.868ZM310.319 162.06C309.871 162.06 309.471 161.988 309.119 161.844C308.775 161.7 308.507 161.508 308.315 161.268C308.131 161.028 308.039 160.76 308.039 160.464V160.32C308.039 160.24 308.079 160.2 308.159 160.2H308.735C308.815 160.2 308.855 160.24 308.855 160.32V160.416C308.855 160.68 308.991 160.912 309.263 161.112C309.543 161.304 309.891 161.4 310.307 161.4C310.723 161.4 311.059 161.308 311.315 161.124C311.571 160.932 311.699 160.692 311.699 160.404C311.699 160.204 311.631 160.04 311.495 159.912C311.367 159.784 311.211 159.684 311.027 159.612C310.851 159.54 310.575 159.448 310.199 159.336C309.751 159.208 309.383 159.08 309.095 158.952C308.807 158.824 308.563 158.648 308.363 158.424C308.171 158.192 308.075 157.9 308.075 157.548C308.075 157.036 308.275 156.628 308.675 156.324C309.075 156.02 309.603 155.868 310.259 155.868C310.699 155.868 311.087 155.94 311.423 156.084C311.767 156.228 312.031 156.428 312.215 156.684C312.399 156.932 312.491 157.212 312.491 157.524V157.56C312.491 157.64 312.451 157.68 312.371 157.68H311.807C311.727 157.68 311.687 157.64 311.687 157.56V157.524C311.687 157.252 311.555 157.024 311.291 156.84C311.035 156.656 310.687 156.564 310.247 156.564C309.839 156.564 309.511 156.648 309.263 156.816C309.015 156.976 308.891 157.2 308.891 157.488C308.891 157.76 309.011 157.968 309.251 158.112C309.491 158.256 309.863 158.4 310.367 158.544C310.831 158.68 311.207 158.808 311.495 158.928C311.783 159.048 312.031 159.224 312.239 159.456C312.447 159.68 312.551 159.976 312.551 160.344C312.551 160.864 312.347 161.28 311.939 161.592C311.531 161.904 310.991 162.06 310.319 162.06Z" fill="#ABBBC2"/>
</svg>
